<svg width="10" height="18" viewBox="0 0 10 18" fill="none" xmlns="http://www.w3.org/2000/svg">
<path d="M5.942 18V15.6194C6.4759 15.5568 6.99997 15.4281 7.50217 15.2361C8.24263 14.9629 8.88893 14.4822 9.36394 13.8513C9.79347 13.2624 10.0167 12.548 9.99902 11.819C10.0097 11.2251 9.86259 10.639 9.57273 10.1206C9.3017 9.67706 8.93264 9.30162 8.49395 9.02323C8.0431 8.74088 7.55506 8.52296 7.04398 8.37581C6.73658 8.28581 6.38859 8.1929 5.99709 8.08548C5.6665 7.99548 5.30981 7.91129 4.75302 7.79516C4.16096 7.67165 3.57925 7.50277 3.01305 7.29C2.6827 7.16627 2.38859 6.96165 2.15756 6.69484C1.96296 6.44801 1.86684 6.13762 1.88787 5.82387C1.88787 5.79484 1.88787 5.76581 1.88787 5.73677C1.90417 5.46469 2.00563 5.20465 2.17786 4.99355C2.44418 4.685 2.78887 4.45428 3.17544 4.32581C3.7691 4.13081 4.39251 4.04235 5.01691 4.06452C5.48212 4.06441 5.94529 4.12591 6.39439 4.24742C6.71556 4.33653 7.01878 4.48094 7.29047 4.67419C7.47383 4.80208 7.63128 4.96365 7.75446 5.15032L8.23586 5.87613L9.68583 4.91516L9.20444 4.18935C8.96192 3.82094 8.65197 3.50178 8.29095 3.24871C7.85636 2.94086 7.37162 2.71099 6.85838 2.56935C6.5577 2.48576 6.25147 2.42367 5.942 2.38355V0H4.20203V2.35452C3.66549 2.40221 3.13618 2.51131 2.62445 2.67968C1.93874 2.90877 1.32757 3.31903 0.855485 3.8671L0.832286 3.89613C0.409025 4.41295 0.166593 5.05438 0.142098 5.72226C0.0986202 6.45414 0.32341 7.17676 0.774287 7.75452L0.803286 7.78936C1.2285 8.29357 1.7756 8.68037 2.39246 8.9129C3.04447 9.15784 3.71442 9.35197 4.39632 9.49355C4.91251 9.60387 5.24311 9.68226 5.5563 9.78387C5.94199 9.87677 6.26679 9.96387 6.54808 10.0452C6.90169 10.1468 7.2394 10.2972 7.55147 10.4923C7.75389 10.6188 7.92613 10.7883 8.05606 10.9887C8.19695 11.2381 8.26808 11.5209 8.26195 11.8074C8.26195 11.8074 8.26195 11.8335 8.26195 11.8481C8.27289 12.1924 8.17105 12.5309 7.97196 12.8119C7.6944 13.176 7.31781 13.4522 6.88738 13.6074C6.28173 13.84 5.6364 13.9515 4.98791 13.9355H4.52972C3.92744 13.9062 3.33654 13.7603 2.78975 13.5058C2.44361 13.3249 2.14541 13.0642 1.91977 12.7452L1.41518 12.0368L0 13.0471L0.504592 13.7555C0.899487 14.3089 1.4217 14.759 2.02706 15.0677C2.71771 15.3898 3.46005 15.5864 4.21943 15.6484V18H5.942Z" fill="black"/>
</svg>
